<svg xmlns="http://www.w3.org/2000/svg" xmlns:xlink="http://www.w3.org/1999/xlink" width="40.73" height="44.032" viewBox="0 0 40.73 44.032">
  <defs>
    <clipPath id="clip-path">
      <rect id="Rectangle_19366" data-name="Rectangle 19366" width="40.73" height="44.032" fill="#2205a9"/>
    </clipPath>
  </defs>
  <g id="Groupe_44658" data-name="Groupe 44658" clip-path="url(#clip-path)">
    <path id="Tracé_34902" data-name="Tracé 34902" d="M13.022,29.04a14.009,14.009,0,0,1,1.164-1.4,16.267,16.267,0,0,1,1.323-1.268,17.035,17.035,0,0,1,3.056-2.1,15.586,15.586,0,0,1,5.38-1.736,14.961,14.961,0,0,1,1.908-.121h.239c.08,0,.16,0,.239.006l.478.021c.318.026.636.05.952.093a15.205,15.205,0,0,1,1.872.359,16.008,16.008,0,0,1,3.509,1.374,17.009,17.009,0,0,1,3.056,2.1,16.674,16.674,0,0,1,1.323,1.269,13.865,13.865,0,0,1,1.163,1.4c-.529-.3-1.045-.6-1.565-.892s-1.039-.566-1.561-.828-1.047-.509-1.575-.739-1.059-.441-1.594-.634a21.487,21.487,0,0,0-3.243-.888l-.41-.072c-.137-.022-.274-.041-.411-.062l-.1-.015-.1-.013-.205-.025-.205-.025-.207-.018a15.935,15.935,0,0,0-1.651-.078,19.131,19.131,0,0,0-6.538,1.194,28.446,28.446,0,0,0-3.168,1.372c-.523.261-1.041.541-1.56.829q-.389.217-.779.442c-.261.149-.519.3-.785.452" transform="translate(-5.508 -9.482)" fill="#2205a9"/>
    <path id="Tracé_34903" data-name="Tracé 34903" d="M7.82,22.451a19.966,19.966,0,0,1,1.29-2.019,22.99,22.99,0,0,1,1.512-1.878,21.144,21.144,0,0,1,3.642-3.24,18.777,18.777,0,0,1,2.122-1.281,16.456,16.456,0,0,1,4.756-1.6c.209-.032.419-.061.629-.091.1-.017.21-.025.316-.035l.316-.029c.106-.009.211-.021.317-.026l.318-.013c.212-.007.424-.022.635-.016a14.977,14.977,0,0,1,2.531.212l.313.055.156.028.155.035c.206.046.412.091.617.14l.609.169c.1.027.2.06.3.093l.3.1.149.05c.05.016.1.033.148.052l.294.111.293.113c.1.038.193.082.289.122l.287.125.144.062.141.068c.187.092.376.18.561.275a18.469,18.469,0,0,1,2.122,1.283,20.391,20.391,0,0,1,1.923,1.523,21.947,21.947,0,0,1,1.719,1.717,22.875,22.875,0,0,1,1.513,1.878,19.87,19.87,0,0,1,1.288,2.021c-.59-.537-1.175-1.069-1.769-1.58s-1.2-1-1.814-1.476a29.4,29.4,0,0,0-3.831-2.519c-.167-.089-.331-.181-.5-.264l-.252-.127c-.084-.043-.167-.086-.253-.124-.17-.078-.338-.161-.508-.238s-.343-.147-.514-.222-.346-.137-.518-.206l-.13-.051-.131-.047-.261-.093c-.087-.031-.173-.065-.261-.092l-.264-.083-.263-.084c-.043-.015-.088-.027-.132-.039l-.133-.036-.265-.073-.133-.038c-.044-.013-.089-.021-.134-.032l-.535-.125-.538-.1-.134-.025-.136-.02-.271-.039-.27-.04-.272-.028-.271-.028L24.9,14.6l-.136-.007-.545-.033-.545-.006c-.182-.007-.363.006-.545.01l-.273.009c-.091,0-.181.014-.272.02l-.272.02c-.091.007-.182.012-.272.025-.181.023-.361.046-.542.066a17.177,17.177,0,0,0-2.146.457l-.265.077c-.088.025-.177.05-.264.081L18.3,15.5c-.173.065-.347.129-.521.192-.044.015-.087.032-.13.05l-.129.053-.258.105a22.173,22.173,0,0,0-2.026.974,29.148,29.148,0,0,0-3.831,2.52q-.922.708-1.813,1.478c-.594.512-1.178,1.044-1.767,1.582" transform="translate(-3.308 -5.169)" fill="#2205a9"/>
    <path id="Tracé_34904" data-name="Tracé 34904" d="M0,14.1a28.187,28.187,0,0,1,1.625-2.714A31.722,31.722,0,0,1,3.533,8.839,29.624,29.624,0,0,1,5.707,6.489,27.028,27.028,0,0,1,8.151,4.381a23.929,23.929,0,0,1,2.718-1.8q.713-.4,1.46-.752c.5-.233,1-.449,1.521-.64a19.042,19.042,0,0,1,3.2-.888c.272-.054.548-.093.823-.134S18.421.1,18.7.077C19.253.027,19.81,0,20.366,0c.07,0,.139,0,.209,0l.208.005c.14,0,.279,0,.417.014l.417.023.416.034q.831.08,1.652.227a19.263,19.263,0,0,1,3.2.888,20.841,20.841,0,0,1,2.982,1.391q.714.4,1.395.852t1.325.943A28.417,28.417,0,0,1,37.2,8.836a31.617,31.617,0,0,1,1.905,2.547A28.074,28.074,0,0,1,40.73,14.1c-.7-.786-1.4-1.558-2.13-2.306s-1.467-1.47-2.23-2.164S34.823,8.27,34.017,7.643s-1.636-1.216-2.488-1.759A26.187,26.187,0,0,0,28.9,4.408c-.448-.219-.9-.422-1.362-.612s-.925-.358-1.394-.513c-.234-.078-.47-.148-.706-.219l-.356-.1c-.118-.032-.238-.061-.357-.091-.477-.117-.957-.218-1.441-.3s-.969-.139-1.456-.179-.976-.059-1.464-.061a18.422,18.422,0,0,0-5.781.945,22.31,22.31,0,0,0-2.756,1.125A26.8,26.8,0,0,0,9.2,5.883,36.129,36.129,0,0,0,4.359,9.628c-.384.345-.757.7-1.13,1.062s-.737.729-1.1,1.1C1.4,12.54.7,13.313,0,14.1" transform="translate(0 0)" fill="#2205a9"/>
    <path id="Tracé_34905" data-name="Tracé 34905" d="M20.109,34.957a7.86,7.86,0,0,1,.546-.585c.182-.178.364-.34.546-.5a12.165,12.165,0,0,1,1.093-.821,11.94,11.94,0,0,1,2.186-1.149,11.82,11.82,0,0,1,4.371-.836,11.676,11.676,0,0,1,4.371.825c.182.073.365.151.546.234s.365.173.546.268.365.2.546.306.365.223.546.343a11.928,11.928,0,0,1,1.093.825c.182.156.365.32.546.5a7.705,7.705,0,0,1,.546.589,7.7,7.7,0,0,1-.546.589c-.182.179-.364.342-.546.5a11.927,11.927,0,0,1-1.093.825c-.182.121-.364.236-.546.343s-.364.21-.546.306-.364.184-.546.268-.364.161-.546.234a11.676,11.676,0,0,1-4.371.825,11.82,11.82,0,0,1-4.371-.836,11.988,11.988,0,0,1-3.278-1.97c-.182-.156-.364-.318-.546-.5a7.859,7.859,0,0,1-.546-.585" transform="translate(-8.506 -13.143)" fill="#2205a9"/>
    <path id="Tracé_34906" data-name="Tracé 34906" d="M15.876,35.5c0,.579,0,1.156.023,1.733,0,.144.011.288.016.432s.011.288.02.432l.024.431.03.43q.129,1.72.413,3.413a32.961,32.961,0,0,0,.746,3.338c.155.547.321,1.09.5,1.628s.386,1.066.6,1.59.447,1.039.7,1.544.514,1,.8,1.485.59.953.91,1.409a15.585,15.585,0,0,0,1.029,1.309c.092.1.183.207.278.306.047.05.093.1.141.151l.144.148.072.074.074.072.147.144.15.139c.05.046.1.093.152.137L23,55.98c.051.044.1.087.157.13.1.088.212.168.318.251.054.04.109.079.163.119l.081.059.083.056.166.112.17.106a7.284,7.284,0,0,0,.693.377,5.975,5.975,0,0,0,.718.284,4.735,4.735,0,0,0,.733.167,3.735,3.735,0,0,0,.736.034,4.778,4.778,0,0,0,.745-.1,5.638,5.638,0,0,0,.74-.214l.183-.069.181-.076c.061-.025.12-.053.179-.081s.12-.055.178-.086c.237-.118.467-.253.7-.394a10.673,10.673,0,0,0,1.3-.972A14.759,14.759,0,0,0,32.4,54.53a18.524,18.524,0,0,0,2-2.675q.446-.714.837-1.464t.736-1.525c.227-.518.442-1.042.64-1.573s.376-1.071.544-1.614c.041-.136.084-.272.123-.409l.117-.411c.073-.275.147-.55.215-.827s.133-.554.2-.833l.089-.419c.03-.14.055-.28.084-.42l.042-.211.038-.211c.025-.141.051-.282.074-.422l.069-.424c.023-.141.042-.283.063-.425l.031-.213.028-.213.054-.427c.031-.285.067-.571.092-.857.114-1.144.168-2.3.192-3.453a29.9,29.9,0,0,1,.19,3.472c0,.291-.006.582-.013.872l-.018.436-.009.218-.013.218c-.032.582-.088,1.163-.155,1.743s-.155,1.158-.257,1.734-.224,1.149-.364,1.719a26.174,26.174,0,0,1-1.058,3.363q-.323.823-.7,1.626t-.829,1.572a18.648,18.648,0,0,1-2.069,2.917A14.647,14.647,0,0,1,32.1,56.685,12.1,12.1,0,0,1,30.642,57.8c-.132.081-.261.165-.4.241-.068.038-.134.078-.2.114l-.208.108c-.069.037-.141.069-.211.1s-.141.068-.214.1l-.218.093-.222.085a7,7,0,0,1-.921.271,6.02,6.02,0,0,1-.97.129,5.088,5.088,0,0,1-.991-.051,6.161,6.161,0,0,1-.953-.221,7.639,7.639,0,0,1-1.713-.814l-.2-.126-.191-.133-.1-.066-.093-.069c-.062-.046-.125-.092-.185-.139-.12-.1-.242-.19-.358-.29-.058-.05-.118-.1-.175-.149l-.17-.153A13.266,13.266,0,0,1,20.7,55.519a18.086,18.086,0,0,1-2-2.967q-.426-.782-.788-1.593t-.66-1.643a26.475,26.475,0,0,1-.972-3.388c-.063-.286-.119-.574-.175-.861l-.078-.432-.07-.433q-.132-.868-.218-1.74c-.053-.582-.092-1.163-.114-1.745s-.025-1.164-.014-1.745.042-1.161.083-1.74.106-1.154.183-1.728" transform="translate(-6.601 -15.018)" fill="#2205a9"/>
    <path id="Tracé_34907" data-name="Tracé 34907" d="M25.254,48.49l.705.5q.351.244.7.469a12.273,12.273,0,0,0,1.424.794,6.908,6.908,0,0,0,2.962.711l.188,0,.188-.01c.062,0,.125-.01.187-.015l.094-.008.093-.013a6.045,6.045,0,0,0,.745-.138,7.939,7.939,0,0,0,1.467-.527,12.484,12.484,0,0,0,1.424-.793q.351-.225.7-.469l.706-.5a5.92,5.92,0,0,1-.432.767,7.374,7.374,0,0,1-.53.709,7.2,7.2,0,0,1-1.322,1.217,6.312,6.312,0,0,1-1.644.845c-.075.024-.149.051-.225.072l-.227.062c-.154.036-.308.071-.464.1a5.735,5.735,0,0,1-.949.078,5.993,5.993,0,0,1-.948-.078,6.086,6.086,0,0,1-.916-.231,6.331,6.331,0,0,1-1.644-.845,7.2,7.2,0,0,1-1.322-1.217,7.367,7.367,0,0,1-.53-.708,6.026,6.026,0,0,1-.432-.766" transform="translate(-10.683 -20.512)" fill="#2205a9"/>
    <path id="Tracé_34908" data-name="Tracé 34908" d="M20.1,46.326c.15.6.314,1.2.506,1.78a17.994,17.994,0,0,0,.655,1.7,14.133,14.133,0,0,0,1.842,3.063c.183.231.376.452.576.665.048.054.1.106.152.158l.153.155c.05.053.105.1.158.15l.159.148a8.512,8.512,0,0,0,1.386,1.011,6.9,6.9,0,0,0,1.539.665,6.127,6.127,0,0,0,.81.17l.2.028.205.016c.137.015.275.01.412.014a5.689,5.689,0,0,0,1.632-.235,6.917,6.917,0,0,0,1.54-.665,8.633,8.633,0,0,0,1.386-1.011l.317-.3.306-.312.3-.325.283-.339a14.112,14.112,0,0,0,1.843-3.061,16.993,16.993,0,0,0,.66-1.7c.192-.582.357-1.176.508-1.779a13.18,13.18,0,0,1-.137,1.867c-.024.155-.045.311-.074.465l-.091.463c-.07.307-.145.614-.234.917a12.458,12.458,0,0,1-1.607,3.468l-.281.4-.3.385c-.1.125-.213.248-.319.371l-.338.357a8.755,8.755,0,0,1-1.542,1.246,7.678,7.678,0,0,1-1.828.851l-.122.039c-.041.012-.083.021-.123.032l-.248.063c-.082.023-.167.035-.25.052l-.252.047c-.084.012-.17.021-.254.031l-.128.014c-.043.005-.085.01-.128.012l-.256.014-.128.006c-.043,0-.086,0-.129,0-.171,0-.343,0-.513-.02l-.256-.021-.254-.036a7.228,7.228,0,0,1-1-.226,7.656,7.656,0,0,1-1.829-.852,8.37,8.37,0,0,1-.81-.583c-.129-.1-.252-.214-.376-.323s-.239-.227-.355-.342l-.17-.178c-.056-.059-.115-.117-.167-.179l-.161-.185c-.054-.061-.107-.122-.157-.188q-.306-.381-.579-.782a12.5,12.5,0,0,1-1.6-3.468,13.722,13.722,0,0,1-.4-1.846,13.01,13.01,0,0,1-.136-1.867" transform="translate(-8.504 -19.597)" fill="#2205a9"/>
  </g>
</svg>
