<?xml version="1.0" encoding="UTF-8"?>
<svg id="Calque_2" data-name="Calque 2" xmlns="http://www.w3.org/2000/svg" xmlns:xlink="http://www.w3.org/1999/xlink" viewBox="0 0 667.01 667">
  <defs>
    <style>
      .cls-1 {
        fill: url(#linear-gradient-2);
      }

      .cls-2 {
        fill: #5c5c5c;
      }

      .cls-3 {
        opacity: .8;
      }

      .cls-4 {
        clip-path: url(#clippath-1);
      }

      .cls-5 {
        opacity: .3;
      }

      .cls-6 {
        clip-path: url(#clippath);
      }

      .cls-7 {
        fill: none;
      }

      .cls-8 {
        mask: url(#mask-1);
      }

      .cls-9 {
        mask: url(#mask);
      }

      .cls-10 {
        fill: url(#linear-gradient);
      }

      .cls-11 {
        fill: #919191;
      }

      .cls-12 {
        fill: #88d5ff;
      }
    </style>
    <linearGradient id="linear-gradient" x1="-8770.5" y1="9826.31" x2="-8231.56" y2="10365.25" gradientTransform="translate(-8090.51 10504.48) rotate(-180)" gradientUnits="userSpaceOnUse">
      <stop offset="0" stop-color="#fff"/>
      <stop offset=".16" stop-color="#bfbfbf"/>
      <stop offset=".33" stop-color="#868686"/>
      <stop offset=".49" stop-color="#565656"/>
      <stop offset=".64" stop-color="#303030"/>
      <stop offset=".78" stop-color="#151515"/>
      <stop offset=".9" stop-color="#050505"/>
      <stop offset="1" stop-color="#000"/>
    </linearGradient>
    <mask id="mask" x="-819.04" y="-26.47" width="1664.82" height="719.89" maskUnits="userSpaceOnUse">
      <rect class="cls-10" x="-16.43" y="-19.36" width="700.34" height="702.56"/>
    </mask>
    <clipPath id="clippath">
      <rect class="cls-7" x=".01" width="667" height="667"/>
    </clipPath>
    <linearGradient id="linear-gradient-2" x1="-9379.44" y1="8429.96" x2="-8922.02" y2="8887.39" gradientTransform="translate(-8675.07 9129.51) rotate(-180)" gradientUnits="userSpaceOnUse">
      <stop offset="0" stop-color="#fff"/>
      <stop offset=".08" stop-color="#d9d9d9"/>
      <stop offset=".22" stop-color="#a0a0a0"/>
      <stop offset=".36" stop-color="#6f6f6f"/>
      <stop offset=".5" stop-color="#474747"/>
      <stop offset=".63" stop-color="#282828"/>
      <stop offset=".76" stop-color="#111"/>
      <stop offset=".89" stop-color="#040404"/>
      <stop offset="1" stop-color="#000"/>
    </linearGradient>
    <mask id="mask-1" x="-27.67" y="-21.68" width="722.38" height="710.36" maskUnits="userSpaceOnUse">
      <rect class="cls-1" x="-11.1" y="-18.42" width="690.34" height="695.35"/>
    </mask>
    <clipPath id="clippath-1">
      <rect class="cls-7" width="667.01" height="667"/>
    </clipPath>
  </defs>
  <g id="Calque_1-2" data-name="Calque 1">
    <g>
      <g class="cls-9">
        <g class="cls-3">
          <g class="cls-6">
            <g>
              <g class="cls-5">
                <path class="cls-11" d="m49.36,242.88l-.39-.13-.55-1.17L277.6,9.9l1.98-1.3,33.27,290.85.05.96L49.36,242.88Zm1.07-1.3l260.81,57.01L278.49,11.1,50.43,241.58Z"/>
                <path class="cls-11" d="m312.25,300.28l-.81.13L278.28,9.9v-.6l1.2-.34,254.06,231.91,1.02.94-222.3,58.47Zm.42-1.69l105.6-27.67-.05-.23h.78l112.61-29.68L279.95,11.33l32.72,287.25Z"/>
                <path class="cls-11" d="m722.28,286.24h0l-189.39-44.06-1.82-.5,263.44-143.38.76-.34,46.98,124.85.11,91.45-120.06-28.04Zm72.22-186.29l-259.37,141.16,185.72,43.36v-.83l1.12,1.07,118.84,27.7v-89.11l-46.3-123.34Z"/>
                <path class="cls-11" d="m456.36,542.62l76.89-165.5.47-1.04,99.53,120.48.78.94-177.66,45.13Zm2.6-2.11l172.4-43.85-97.24-117.85-75.17,161.69Z"/>
                <path class="cls-11" d="m554.2,657.18l-.47.94-96.9-115.6-.29-.37.65-1.17,175.38-44.68,1.46-.34-79.83,161.23Zm-.89-1.69l78.06-157.4-173,44.06,94.94,113.34Z"/>
                <path class="cls-11" d="m251.93,656.92l-.55,1.9L49.13,242.99l-1.3-2.5,268.21,188.32.44.37-64.54,227.74Zm-.83-2.11l63.63-225.04L51.65,244.91l199.45,409.89Z"/>
                <path class="cls-11" d="m714.9,656.68v3.07l-82.83-162.4-.39-.81,174.18-38.4,1.46-.21-92.42,198.74Zm-.89-1.77l90.77-194.97-171.07,37.54,80.3,157.42Z"/>
                <path class="cls-11" d="m-20.86,656.79l-.13.86h-1.07l-272.06-270.05-.76-.84L49.88,240.88-20.86,656.79Zm-1.3-1.41L47.95,243.35l-340.25,144.03L-22.16,655.38Z"/>
                <path class="cls-11" d="m404.75,657.05l-1.02,1.07-88.82-228.34-.29-.86,219.09-52.14,1.54-.37-130.51,280.64Zm-.7-2.03l52.5-112.74-.94-.94,1.51-.37,75.48-162.4-216.05,51.43,87.49,225.01Z"/>
                <path class="cls-11" d="m-293.31,387.72l-1.22.6,49.64-253.56.1-.81L49.23,241.34l1.72.7-344.26,145.67Zm.65-1.9L46.94,242.18l-290.61-106.33-48.98,249.97Z"/>
                <path class="cls-11" d="m631.92,497.96l13.42-175.56.1-1.59,161.12,137.44,1.12,1.09-175.77,38.61Zm1.56-1.88l170.97-37.57-157.79-134.7-13.19,172.28Z"/>
                <path class="cls-11" d="m316.26,429.9l-1.36,1.88-3.6-132.2v-.62l107.56-28.27,1.88-.44-104.48,159.66Zm0-2.87l101.2-154.45-104.61,27.46,3.41,126.99Z"/>
                <path class="cls-11" d="m49.41,243.25l-1.46-2.14,264.3,57.74.52.1,3.6,130.48v1.41L49.41,243.25Zm2.95.34l262.45,184.39-3.44-127.82L52.36,243.59Z"/>
                <path class="cls-11" d="m633.43,497.12l-.18,1.77-99.89-121.05-.52-.62,112.92-55.57,1.15-.6-13.47,176.08Zm-1.3-1.88l13.08-171.7-110.19,54.19,97.1,117.51Z"/>
                <path class="cls-11" d="m534.24,378.11l-1.07.57-.86-137.34v-.86l189.37,44.21,2.01.5-189.44,92.91Zm.42-1.82l184.68-90.64-185.51-43.22.83,133.87Z"/>
                <path class="cls-11" d="m418.68,271.86l-1.07-.94,116.15-30.43.94,137.02v1.64l-116.02-107.29Zm2.01-.1l112.45,104.06-.78-133.4-111.67,29.34Z"/>
                <path class="cls-11" d="m315.8,430.27l-1.82.34,104.48-159.56.7-.7,115.27,106.57,1.02.94-219.64,52.42Zm1.46-1.93l215.16-51.22-113.16-104.64-102,155.86Z"/>
                <path class="cls-11" d="m645.59,322.97l-.81-.73,76.37-37.54.91-.13,84.68,173.94,1.46,3.2-162.61-138.74Zm1.85-.47l156.41,133.53-82.65-169.8-73.76,36.27Z"/>
                <path class="cls-11" d="m522.46,240.75c0,5,4.06,9.14,9.25,9.14s9.22-4.14,9.22-9.14-4.04-9.25-9.22-9.25-9.25,4.04-9.25,9.25Z"/>
                <path class="cls-11" d="m525.53,378.21c0,5.21,4.01,9.28,9.25,9.28s9.22-4.07,9.22-9.28-4.12-9.17-9.22-9.17-9.25,4.17-9.25,9.17Z"/>
                <path class="cls-11" d="m621.83,495.95c0,5.24,4.07,9.25,9.2,9.25s9.22-4.01,9.22-9.25-3.99-9.15-9.22-9.15-9.2,4.01-9.2,9.15Z"/>
                <path class="cls-11" d="m450.42,541.34c0,5.11,4.12,9.14,9.22,9.14s9.2-4.04,9.2-9.14-4.06-9.28-9.2-9.28-9.22,4.14-9.22,9.28Z"/>
                <path class="cls-11" d="m409.62,270.11c0,5.08,4.14,9.25,9.2,9.25s9.25-4.17,9.25-9.25-4.09-9.27-9.25-9.27-9.2,4.14-9.2,9.27Z"/>
                <path class="cls-11" d="m302.14,300.41c0,5.05,4.04,9.27,9.3,9.27s9.17-4.22,9.17-9.27-4.07-9.17-9.17-9.17-9.3,4.14-9.3,9.17Z"/>
                <path class="cls-11" d="m306.73,428.81c0,5.11,4.12,9.27,9.25,9.27s9.22-4.17,9.22-9.27-4.06-9.12-9.22-9.12-9.25,4.01-9.25,9.12Z"/>
                <path class="cls-11" d="m242.56,656.11c0,5.11,4.06,9.25,9.25,9.25s9.22-4.14,9.22-9.25-4.12-9.17-9.22-9.17-9.25,4.06-9.25,9.17Z"/>
                <path class="cls-11" d="m395.45,657.18c0,5.08,4.06,9.12,9.17,9.12s9.25-4.04,9.25-9.12-4.07-9.28-9.25-9.28-9.17,4.04-9.17,9.28Z"/>
                <path class="cls-11" d="m545.36,656.32c0,4.32,3.36,7.64,7.66,7.64s7.66-3.31,7.66-7.64-3.31-7.71-7.66-7.71-7.66,3.44-7.66,7.71Z"/>
                <path class="cls-11" d="m39.25,242.41c0,5.11,4.09,9.17,9.17,9.17s9.22-4.06,9.22-9.17-4.04-9.28-9.22-9.28-9.17,4.04-9.17,9.28Z"/>
                <path class="cls-11" d="m636.32,320.81c0,5.13,4.01,9.28,9.12,9.28s9.25-4.14,9.25-9.28-4.07-9.25-9.25-9.25-9.12,4.17-9.12,9.25Z"/>
                <path class="cls-11" d="m268.35,9.9c0,5.11,4.12,9.25,9.25,9.25s9.17-4.14,9.17-9.25-4.06-9.25-9.17-9.25-9.25,4.14-9.25,9.25Z"/>
              </g>
              <g>
                <path class="cls-2" d="m273.53,457.94l-2.71-.13,174.41-95.28.47-.23,132.85,101.8,1.77,1.46-306.79-7.61Zm2.68-1.43l299.63,7.37-130.33-99.84-169.3,92.47Z"/>
                <path class="cls-2" d="m47.35,686.25l-.7.62-40.67-83.4-.29-.73,265.7-145.07,4.33-2.37-228.37,230.95Zm-.34-1.74l220.79-223.26L7.57,603.48l39.45,81.03Z"/>
                <path class="cls-2" d="m523.06,686.02l-1.46.86,55.78-222.32.23-.81,202.91,80.8.47.1v1.07l-257.94,140.3Zm.76-1.98l254.84-138.66-200.1-79.73-54.74,218.39Z"/>
                <path class="cls-2" d="m523.42,685.55l-.36,1.33-250.41-228.84-.78-.6,1.49-.94,304.76,7.48h.86l-55.55,221.57Zm-1.14-1.41l54.87-218.73-302.5-7.48,247.63,226.21Z"/>
                <path class="cls-2" d="m273.93,457.81l-.94.13-.83.94L6.97,603.69l-3.39,1.93,214.19-255.7.29-.21,227.35,12.45h.18l1.28,1.2-172.95,94.45ZM9.58,600.61l261.67-142.8,1.15-1.3h.96l170.11-93.04-224.67-12.25L9.58,600.61Z"/>
                <path class="cls-2" d="m578.76,464.92l-.31.99-133.32-102.21-.84-.7,2.01-.94,178.6-25.06,1.15-.13-47.29,128.06Zm-.96-1.41l46.04-124.85-176.65,24.7,130.61,100.15Z"/>
                <path class="cls-2" d="m574.94,464.09l170.11-13.29.47-.1,35.38,94.32.52,1.43-206.48-82.36Zm6.28.94l197.81,78.95-34.5-91.71-163.31,12.77Z"/>
                <path class="cls-2" d="m446.77,363.36l-1.69.21-119.38-111.88-1.3-1.2,341.89-8.55,3.08-.13-222.59,121.55Zm-1.17-1.3h.63l217.16-118.7-335.48,8.44,117.69,110.26Z"/>
                <path class="cls-2" d="m624.49,338.14l-2.71-2.45,92.65,35.98.65-1.8,31.61,84.26-122.2-116Zm3.7,1.56l114.93,109.07-28.27-75.45-86.66-33.61Z"/>
                <path class="cls-2" d="m578.14,465.42l-1.09.13,47.26-128.08.34-1.1,120.87,114.54,1.07,1.2-168.44,13.32Zm.96-1.54l164.17-12.97-118.03-111.9-46.14,124.88Z"/>
                <path class="cls-2" d="m715.79,372.38l-.7,1.82-49.45-131.44-.18-.34,153.23-171.23-102.89,301.19Zm-.7-2.37l99.87-292.52-147.73,165.27,47.86,127.25Z"/>
                <path class="cls-2" d="m666.86,242.99l-.44.6L356.18-17.2l-2.19-1.77,463.04,92.54,1.17.23-151.35,169.17Zm-.65-1.41l149.19-166.83L359.23-16.36l306.98,257.94Z"/>
                <path class="cls-2" d="m218.82,350.98l-.34.39L31.33,257.63l295.93-7.27-108.44,100.62Zm-.49-1.41l105.23-97.68-286.37,7.14,181.13,90.54Z"/>
                <path class="cls-2" d="m326.17,251.79h-.37l-291.55,7.24h-.97l46.35-184.88.16-.68,586.65,168.47,4.56,1.3-344.83,8.55Zm-291.01,5.84l289.99-7.14.65-.73.65.73,335.17-8.55L80.86,75.25l-45.7,182.38Z"/>
                <path class="cls-2" d="m5.8,605.36l27.67-347.02.13-1.17,185.2,92.65.76.47L5.8,605.36Zm1.77-4.38l209.69-250.23-182.36-91.35L7.57,600.98Z"/>
                <path class="cls-2" d="m35,258.57l-.65,2.61L-8.2,108.52l-.18-.6,88.4-34.34,1.3-.36-46.32,185.35Zm-.76-3.07l45.02-179.99L-6.74,108.75l40.99,146.74Z"/>
                <path class="cls-2" d="m-226.85,193.8l-2.19-.44L-7.86,107.71l.76-.42,42.1,150.8.23,1.3-262.09-65.61Zm2.48-.81L33.23,257.4-8.04,109.33l-216.33,83.66Z"/>
                <path class="cls-2" d="m-241.96,581.36l-1.3-.13,100.42-117.35.6-.6L7.1,602.65l1.59,1.41-250.65-22.69Zm1.56-1.28l244.97,22.2-146.77-136.86-98.2,114.67Z"/>
                <path class="cls-2" d="m-141.72,464.82l-.52.34-236.47-111.54-.29-.1-.65-1.43L34.04,257.63l2.13-.47-177.9,207.66Zm-.76-1.3L32.29,259.51l-409.19,93.51,234.41,110.5Z"/>
                <path class="cls-2" d="m7.33,603.11l-.05,1.51-149.99-139.7-.47-.47L33.7,257.86l1.46-1.69L7.33,603.11Zm-1.3-1.56l27.38-341.06-174.64,203.85L6.03,601.55Z"/>
                <path class="cls-2" d="m218.33,351.22l-1.67-.1,108.31-100.49.18-.13h1.3l119.3,111.93,1.61,1.28-229.05-12.48Zm107.37-99.43l-105.5,98.02,223.16,12.25-117.43-110.26h-.23Z"/>
                <path class="cls-2" d="m80.1,75.04l-2.24-.62L356.52-18.6l310.23,260.55,2.71,2.27L80.1,75.04Zm2.63-.73l580.6,166.7L356.36-16.96,82.74,74.31Z"/>
                <path class="cls-2" d="m-8.04,109.33L-29.22,33.56l-.37-1.33,110.13,41.35,1.85.73L-8.04,109.33Zm.94-2.03l85.43-32.98L-27.4,34.6-7.1,107.29Z"/>
                <path class="cls-2" d="m46.65,686.88l-288.79-105.52-5.18-2.01,254.01,23.06h.42l40.39,83.04.18.47-1.02.96Zm-283.08-105.05l282.15,103.26-39.58-81.26-242.57-21.99Z"/>
                <path class="cls-2" d="m-378.43,353.38l-.57.13-139.57-232.88-.94-1.56,292.67,73.32h0L34.4,257.63l2.95.83-415.78,94.92Zm150.93-158.49v-1.2l-289.08-72.33,138.32,230.48L31.17,258.33l-257.65-64.41-1.02.96Z"/>
                <path class="cls-2" d="m625.61,337.93l-.18.34-178.95,25.2-3.96.57,223.39-122.09,1.95-.94-42.26,96.92Zm-1.12-.94l40.31-92.78-214.56,117.38,174.25-24.6Z"/>
                <path class="cls-2" d="m715.37,373.57l-90.72-35.15-.63-.29,41.61-95.83.78-1.69,49.37,131.29.05.13-.47,1.54Zm-89.47-36.37l88.3,34.37-47.91-127.02-40.38,92.65Z"/>
                <path class="cls-2" d="m654.82,243.59c0,5,3.99,9.04,9.04,9.04s9.07-4.04,9.07-9.04-3.93-9.15-9.07-9.15-9.04,4.07-9.04,9.15Z"/>
                <path class="cls-2" d="m614.96,337.57c0,5,3.99,9.04,9.07,9.04s9.07-4.04,9.07-9.04-3.96-9.04-9.07-9.04-9.07,4.06-9.07,9.04Z"/>
                <path class="cls-2" d="m314.44,251.9c0,5,4.07,9.17,9.12,9.17s9.07-4.17,9.07-9.17-4.07-9.02-9.07-9.02-9.12,4.01-9.12,9.02Z"/>
                <path class="cls-2" d="m435.52,361.69c0,4.98,4.01,9.17,9.07,9.17s9.12-4.19,9.12-9.17-4.04-9.02-9.12-9.02-9.07,4.01-9.07,9.02Z"/>
                <path class="cls-2" d="m571.26,465.54c0,4.98,3.94,9.02,9.07,9.02s9.07-4.04,9.07-9.02-3.99-9.17-9.07-9.17-9.07,4.06-9.07,9.17Z"/>
                <path class="cls-2" d="m209.18,349.58c0,4.98,4.07,9.04,9.15,9.04s9.07-4.06,9.07-9.04-4.09-9.04-9.07-9.04-9.15,4.01-9.15,9.04Z"/>
                <path class="cls-2" d="m264.52,457.94c0,5.11,3.94,9.12,9.02,9.12s9.07-4.01,9.07-9.12-3.96-9.02-9.07-9.02-9.02,4.01-9.02,9.02Z"/>
                <path class="cls-2" d="m-1.5,600.98c0,5,3.94,9.02,9.07,9.02s9.07-4.01,9.07-9.02-4.01-9.17-9.07-9.17-9.07,4.06-9.07,9.17Z"/>
                <path class="cls-2" d="m70.18,75.51c0,5.08,4.04,9.12,9.1,9.12s9.12-4.04,9.12-9.12-4.07-9.07-9.12-9.07-9.1,4.06-9.1,9.07Z"/>
                <path class="cls-2" d="m24.04,258.57c0,4.98,4.01,9.04,9.07,9.04s9.09-4.06,9.09-9.04-3.96-9.17-9.09-9.17-9.07,4.06-9.07,9.17Z"/>
              </g>
            </g>
          </g>
        </g>
      </g>
      <g class="cls-8">
        <g class="cls-4">
          <g>
            <g>
              <path class="cls-12" d="m348.14,153.44l.38-.89.33-.05,130.04-28.4-.09.83-16.38,143.54-1.32-.83-112.96-114.2Zm129.37-27.83l-127.64,27.88,111.57,112.82,16.07-140.7Z"/>
              <path class="cls-12" d="m460.02,267.09l2.26-.05,154.21-3.75-1.46,1.12-66.54,51.04-.38-.21-88.09-48.15Zm152.81-2.53l-148.29,3.62,83.8,45.83,64.49-49.45Z"/>
              <path class="cls-12" d="m461.34,267.4l16.32-143.3,110.52,29.05-.8.76-125.21,114.28-.8-.26-.05-.52Zm17.36-141.79l-16.03,140.51,123.07-112.35-54.89-14.46h-.51l-.05-.18-51.59-13.52Z"/>
              <path class="cls-12" d="m327.96,194.92l.23-.52,20.51-42.11.56.57,115.46,116.75-3.62-1.96-133.14-72.74Zm21.07-40.59l-19.51,40.07,128.58,70.22-109.07-110.29Z"/>
              <polygon class="cls-12" points="694.71 231.39 615.09 263.1 587.9 154.63 694.71 212.76 694.71 211.41 587.25 152.92 586.07 152.27 614.1 264.07 614.29 264.74 694.71 232.69 694.71 231.39"/>
              <polygon class="cls-12" points="694.71 211.38 588.65 153.67 679.14 132.57 679.19 133.27 680.08 132.36 694.71 128.94 694.71 127.7 680.31 131.05 586.82 152.86 585.32 153.23 694.71 212.76 694.71 211.38"/>
              <path class="cls-12" d="m461.06,267.61l.61-.55,125.66-114.75.24.99,27.89,111.23h-.76l-152.56,3.7-1.08-.62Zm125.57-113.05l-123.14,112.45,150.41-3.67-27.28-108.78Z"/>
              <path class="cls-12" d="m326.22,192.6l135.64,74.13.29.31.47.08,86.81,47.45-.89.91h-.23l-113.87,6.23-.18-.23-108.04-128.86Zm134.8,75.01l-129.75-70.89,103.7,123.73,111.55-6.1-84.37-46.12h-.52l-.61-.62Z"/>
              <path class="cls-12" d="m547.27,314.82l.81-.57,66.87-51.3,24.13,65.27-90.53-12.74-1.28-.65Zm67.12-49.92l-64.62,49.53,87.47,12.3-22.85-61.83Z"/>
              <polygon class="cls-12" points="694.71 269.61 617.3 263.55 694.71 232.69 694.71 231.42 614.47 263.33 612.08 264.32 694.71 270.84 694.71 269.61"/>
              <path class="cls-12" d="m487.16,371.33l1.08-.99,59.83-56.1,1.03.13,112.22,61.36-2.49-.08-171.68-4.32Zm61.33-55.86l-58.36,54.74,166.25,4.17-107.89-58.91Z"/>
              <polygon class="cls-12" points="694.71 273 638.42 326.39 615.55 264.59 694.71 270.84 694.71 269.64 614.71 263.33 613.77 263.26 637.89 328.52 694.71 274.62 694.71 273"/>
              <path class="cls-12" d="m180.45,529.35l.31-1.12,30.69-129.05.76.03,110.15,42.65-.13.52-10.59,37.78-131.19,49.19Zm31.94-128.76l-30.22,126.83,128.48-48.18,10.25-36.66-108.5-42Z"/>
              <path class="cls-12" d="m694.71,586.67l-95.66-99.82,95.66-19.1v-1.25l-96.65,19.33-.09-.08-.05.08-94.43,18.92-.33.6,44.96,91.95.57,1.17,49.66-110.6,96.36,100.52v-1.72Zm-146.08,8.94l-43.98-89.86,92.65-18.53-48.67,108.39Z"/>
              <polygon class="cls-12" points="694.71 414.24 659.53 374.93 683.23 312.03 694.71 345.62 694.71 341.99 683.8 310.05 683.28 308.46 658.26 374.85 658.17 375.19 694.71 416.07 694.71 414.24"/>
              <polygon class="cls-12" points="694.71 466.51 506.07 504.24 658.78 375.89 694.71 416.07 694.71 414.24 659.3 374.67 658.92 374.22 503.48 504.84 501.7 506.32 694.71 467.74 694.71 466.51"/>
              <path class="cls-12" d="m340.14,367.71l94.67-47.37.29.29,54.74,50.81-1.6-.05-148.1-3.67Zm94.43-45.91l-89.59,44.81,141.7,3.52-52.11-48.33Z"/>
              <path class="cls-12" d="m174.2,624.22l6.62-97.16,94.06,88.14-1.33.13-99.35,8.88Zm7.63-94.53l-6.33,93.2,96.58-8.65-90.25-84.55Z"/>
              <path class="cls-12" d="m73.94,633.16l1.2-1.17,106.87-105.16-.1,1.59-6.51,95.7-.47.05-100.99,8.99Zm106.67-103.23l-103.44,101.72,97.08-8.62,6.36-93.09Z"/>
              <polygon class="cls-12" points="104.29 688.68 74.54 681.04 76.13 633.62 146.4 688.68 148.35 688.68 75.92 631.93 74.98 631.23 73.32 681.49 73.27 681.98 99.42 688.68 104.29 688.68"/>
              <polygon class="cls-12" points="148.35 688.68 77.12 632.87 174.2 624.22 169.77 688.68 170.97 688.68 175.45 623.59 175.5 622.89 75.48 631.8 73.97 631.93 146.4 688.68 148.35 688.68"/>
              <path class="cls-12" d="m180.24,528.15l.89-.37,130.9-49.06-.31,1.14-37.94,135.98-.7-.7-92.83-87Zm129.99-47.47l-127.8,47.91,90.72,85.02,37.08-132.93Z"/>
              <path class="cls-12" d="m341.78,366.54l.81.03,145.79,3.62v-.03l.29.03,174.11,4.38-3.76,1.07-293.85,84.36-23.39-93.46Zm146.22,4.85l-144.66-3.59,22.71,90.7,288.87-82.93-166.07-4.17-.42.42-.43-.42Z"/>
              <path class="cls-12" d="m327.96,192.81l107.7,128.45-93.64,46.82-.04-.89-14.02-174.38Zm105.77,128.06l-104.26-124.38,13.63,169.72,90.63-45.33Z"/>
              <path class="cls-12" d="m320.9,442.59l.14-.52,21.55-77.28,23.89,95.44-1.08-.44-44.5-17.2Zm21.64-73.08l-20.18,72.35,42.38,16.42-22.2-88.77Z"/>
              <path class="cls-12" d="m210,399.68l1.82-.47,131.62-32.88-.29,1.02-21.12,75.66-.61-.23-111.42-43.09Zm131.69-31.68l-127.68,31.92,107.23,41.5,20.45-73.42Z"/>
              <polygon class="cls-12" points="170.97 688.68 175.4 624.11 271.67 615.49 187.96 688.68 189.81 688.68 273.89 615.18 275.24 613.95 174.77 622.97 174.25 623.02 169.8 688.68 170.97 688.68"/>
              <polygon class="cls-12" points="257.81 688.68 273.73 616.35 313.02 683.88 308.54 688.68 310.18 688.68 314.17 684.38 314.48 684.04 273.99 614.42 273.21 613.09 256.59 688.68 257.81 688.68"/>
              <polygon class="cls-12" points="189.78 688.68 272.53 616.38 256.59 688.68 257.84 688.68 274.07 614.86 274.46 613.07 187.96 688.68 189.78 688.68"/>
              <path class="cls-12" d="m548.78,4.82l1.26.34,87.06,22.15-49.86,60.29-38.47-82.77Zm86.2,23.19l-84.04-21.39,36.59,78.74,47.45-57.35Z"/>
              <polygon class="cls-12" points="610.94 -21.68 634.94 26.73 550.65 5.29 573.25 -21.68 571.68 -21.68 549.29 5.06 549.01 5.37 549.48 6.23 635.88 28.24 637.14 28.56 612.26 -21.68 610.94 -21.68"/>
              <path class="cls-12" d="m6.72,38.43L135.59-17.53l.26.52,45.28,99.66-1.22-.26L6.72,38.43ZM134.99-15.97L10.42,38.12l168.6,42.76L134.99-15.97Z"/>
              <polygon class="cls-12" points="455.91 -21.68 479.26 60.66 350.68 150.99 434.66 -21.68 433.34 -21.68 348.56 152.58 347.53 154.66 480.29 61.39 480.63 61.15 457.18 -21.68 455.91 -21.68"/>
              <polygon class="cls-12" points="9.17 38.12 8.96 37.36 -27.67 56.8 -27.67 58.18 8.18 39.16 42.13 181.24 -27.67 121.39 -27.67 122.95 42.73 183.35 44.14 184.57 9.17 38.12"/>
              <path class="cls-12" d="m7.76,37.47l.94.23,172.74,43.8-1.01.76L42.78,183.92l-.21-.91L7.76,37.47Zm170.92,44.58L9.38,39.11l34.13,142.75,135.17-99.82Z"/>
              <path class="cls-12" d="m203.17,205.41l1.15-.13,126.09-11.41-1.28,1.2-74.95,69.88-.39-.5-50.63-59.04Zm123.85-10.03l-121.46,11.02,48.7,56.8,72.76-67.82Z"/>
              <path class="cls-12" d="m135.09,320.39l.5-1.07.21-.05,118.5-55.91.39.31,89.51,104.45-1.74-.37-207.36-47.37Zm118.99-55.6l-116.52,54.95,203.33,46.4-86.81-101.35Z"/>
              <path class="cls-12" d="m134.52,321.2l.99-1.69,68.81-114.64.52.63,50.36,58.75-.7.37-119.98,56.59Zm69.95-114.3l-66.91,111.51,115.71-54.56-48.8-56.96Z"/>
              <polygon class="cls-12" points="-27.67 454.4 -27.67 455.64 64.98 437.09 -2.95 550.2 -27.67 506.89 -27.67 509.34 -3.49 551.68 -2.97 552.57 66.7 436.57 67.43 435.37 -27.67 454.4"/>
              <path class="cls-12" d="m253.41,264.01l.42-.39,75.4-70.24.1,1.2,13.97,174.38-1.17-1.41-88.72-103.54Zm74.84-68.06l-73.18,68.14,86.71,101.27-13.53-169.41Z"/>
              <polygon class="cls-12" points="-14.07 688.68 -12.77 688.68 18.08 611.76 18.94 609.63 -27.67 646.76 -27.67 648.27 16.13 613.43 -14.07 688.68"/>
              <path class="cls-12" d="m392.34,598.29l1.28-1.04,110.42-92.83.34.7,45.01,92.05-.47.47-.38.1-156.2.55Zm111.28-91.97l-107.93,90.75,152.04-.52-44.11-90.23Z"/>
              <polygon class="cls-12" points="694.71 605.67 622.04 688.68 623.62 688.68 694.71 607.49 694.71 605.67"/>
              <polygon class="cls-12" points="578.87 688.68 549.53 597.75 694.71 597.25 694.71 596.03 548.68 596.55 547.88 596.55 577.61 688.68 578.87 688.68"/>
              <polygon class="cls-12" points="623.64 688.68 694.71 607.49 694.71 605.69 622.04 688.68 623.64 688.68"/>
              <polygon class="cls-12" points="534.33 688.68 474.7 649.7 548.35 598.01 577.61 688.68 578.87 688.68 549.29 596.94 549.01 596.55 548.35 596.55 473.28 649.23 472.58 649.75 532.13 688.68 534.33 688.68"/>
              <path class="cls-12" d="m392.02,597.1h1.98l156.47-.57-76.81,53.93-.38-.23-81.26-53.13Zm154.63.65l-150.64.55,77.6,50.7,73.03-51.25Z"/>
              <path class="cls-12" d="m433.26,320.53l1.41-.05,115.23-6.3-1.21,1.12-59.84,56.09h-.85l-.13-.15-54.61-50.7Zm113.39-4.98l-110.52,6.04,52.31,48.54,58.22-54.58Z"/>
              <path class="cls-12" d="m363.57,459.19l1.88-.52,295.97-84.99-2.16,1.85-155.44,130.46-.23-.08-140.01-46.71Zm292.72-82.78l-288.63,82.85,136.02,45.39,152.61-128.24Z"/>
              <polygon class="cls-12" points="694.71 596.05 549.53 596.55 598.34 487.88 694.71 588.39 694.71 586.67 598.63 486.39 597.97 485.77 548.11 596.81 548.02 597.15 548.31 597.75 694.71 597.25 694.71 596.05"/>
              <polygon class="cls-12" points="405.72 688.68 407.96 688.68 379.04 670.39 394.18 599.81 428.06 688.68 429.34 688.68 394.56 597.51 393.86 595.59 377.76 670.62 377.39 672.58 378.47 671.46 405.72 688.68"/>
              <path class="cls-12" d="m380.02,532.66l.61-.1,123.31-27.9.7.7-.42.47-110.62,92.99-.2-.99-13.41-65.16Zm121.62-26.21l-120.2,27.12,12.98,63,107.23-90.13Z"/>
              <path class="cls-12" d="m313.07,683.94l.21-.39,81.8-87.85-16.23,75.56-.38.1-65.03,13.39-.37-.81Zm79.89-84.23l-77.59,83.4,62.49-12.87,15.1-70.53Z"/>
              <path class="cls-12" d="m271.28,615.65l1.85-1.41,107.37-81.63.7-.39.14.81,13.39,65.19-.65.08-122.81,17.35Zm109.08-81.47l-104.7,79.65,117.64-16.62-12.94-63.03Z"/>
              <path class="cls-12" d="m272.53,614.24l.89-.1,122.17-17.28-1.12,1.25-80.85,86.84-.44-.68-40.64-70.03Zm119.87-15.71l-117.94,16.65,39.39,67.77,78.54-84.42Z"/>
              <path class="cls-12" d="m364.79,458.33l141.23,47.11-2.11.49-123.66,27.9-.09-.57-15.37-74.93Zm136.76,46.9l-135.16-45.07,14.81,72.25,120.35-27.18Z"/>
              <path class="cls-12" d="m310.23,480.68l.34-1.14,10.67-38.12.61.23,45.43,17.61-1.46.52-55.59,20.9Zm11.8-37.67l-9.95,35.72,51.81-19.49-41.86-16.23Z"/>
              <polygon class="cls-12" points="134.44 -21.68 134.65 -17.14 10 37 44.73 -21.68 43.3 -21.68 8.02 37.99 7.09 39.58 135.51 -16.21 135.95 -16.36 135.64 -21.68 134.44 -21.68"/>
              <polygon class="cls-12" points="283.42 -21.68 182.12 78.9 230.43 -21.68 229.1 -21.68 179.52 81.53 178.03 84.68 285.12 -21.68 283.42 -21.68"/>
              <polygon class="cls-12" points="175.19 -21.68 179.36 78.71 136.03 -16.59 141.79 -21.68 139.97 -21.68 134.91 -17.2 134.57 -16.91 179.52 82.02 180.82 84.81 176.39 -21.68 175.19 -21.68"/>
              <polygon class="cls-12" points="318.34 -21.68 347.91 152.11 181.13 81.58 285.17 -21.68 283.42 -21.68 179.62 81.34 179.02 81.97 348.41 153.67 349.46 154.09 319.52 -21.68 318.34 -21.68"/>
              <polygon class="cls-12" points="511.39 -21.68 480.02 58.99 457.15 -21.68 455.93 -21.68 479.35 61.07 479.82 62.79 512.65 -21.68 511.39 -21.68"/>
              <polygon class="cls-12" points="536.48 -21.68 549.01 5.31 548.4 5.91 549.39 6.2 586.35 85.62 480.76 60.45 512.7 -21.68 511.39 -21.68 479.35 60.66 479.12 61.31 587.25 87.08 588.47 87.36 537.77 -21.68 536.48 -21.68"/>
              <polygon class="cls-12" points="433.29 -21.68 349.31 151.01 352.26 -21.68 351.06 -21.68 348.09 153.1 348.05 154.27 349.55 153.26 434.66 -21.68 433.29 -21.68"/>
              <polygon class="cls-12" points="351.03 -21.68 348.18 146.64 319.5 -21.68 318.34 -21.68 348.09 153.23 349.26 153.12 352.26 -21.68 351.03 -21.68"/>
              <polygon class="cls-12" points="229.1 -21.68 180.56 79.34 176.44 -21.68 175.24 -21.68 179.49 81.81 179.57 84.21 230.48 -21.68 229.1 -21.68"/>
              <polygon class="cls-12" points="43.3 -21.68 8.44 37.23 -27.67 -5.08 -27.67 -3.25 8.65 39.29 44.71 -21.68 43.3 -21.68"/>
              <polygon class="cls-12" points="-27.67 429.07 -27.67 430.3 61.67 436.52 -27.67 454.42 -27.67 455.64 66.31 436.83 70.71 435.95 -27.67 429.07"/>
              <polygon class="cls-12" points="-27.67 121.39 -27.67 122.95 41.97 182.7 -27.67 208.07 -27.67 209.32 43.35 183.45 44.32 183.11 -27.67 121.39"/>
              <polygon class="cls-12" points="-27.67 294.39 -27.67 296.56 65.03 435.58 -27.67 429.07 -27.67 430.3 66.13 436.83 67.38 436.94 -27.67 294.39"/>
              <path class="cls-12" d="m179.25,80.77l1.04.44,170,71.94-1.41.52-144.94,53.02-.16-.68-24.54-125.24Zm167.75,72.3l-166.11-70.29,23.95,122.3,142.17-52Z"/>
              <polygon class="cls-12" points="694.71 68.34 643.12 112.37 636.67 28.4 694.71 41.14 694.71 39.92 636.15 27.07 635.35 26.89 642.04 113.65 642.13 114.82 694.71 69.93 694.71 68.34"/>
              <path class="cls-12" d="m199.84,206.9l4.32-1.59,144.68-52.89.76.78-.19.37-20.27,41.63-.33.05-128.97,11.65Zm147.96-52.84l-138.87,50.83,119.41-10.81,19.46-40.02Z"/>
              <path class="cls-12" d="m477.57,125.32l.05-.5,1.78-65.86,1.03,1.59,51.78,79.1-1.51-.37-53.14-13.96Zm2.92-62.51l-1.69,61.57,50.7,13.32-49.01-74.88Z"/>
              <path class="cls-12" d="m347.71,153.96l1.04-1.61,131.83-92.65-.05,1.2-1.73,64.43-.47.13-130.61,28.5Zm131.6-91.89l-127.84,89.84,126.14-27.54,1.69-62.3Z"/>
              <path class="cls-12" d="m586.44,86.68l.52-.6,49.57-59.95.1,1.46,6.67,87.05-.94-.47-55.93-27.49Zm49.1-57.5l-47.16,57.08,53.55,26.34-6.4-83.43Z"/>
              <path class="cls-12" d="m586.35,154.22l.05-.78.42-67.92.85.44,93.84,46.07-1.65.39-93.5,21.81Zm1.65-66.78l-.43,65.24,90.4-21.08-89.97-44.16Z"/>
              <path class="cls-12" d="m529.73,139.05l.8-.76,57.48-53.2v1.38l-.43,67.77-.76-.21-57.09-14.98Zm57.05-51.17l-54.65,50.55,54.27,14.25.38-64.8Z"/>
              <path class="cls-12" d="m478.6,59.93l1.46.39,108.6,25.82-.85.81-56.9,52.6-.52-.55-51.79-79.08Zm107.57,26.86l-104.88-24.96,49.77,76,55.12-51.04Z"/>
              <path class="cls-12" d="m-3.75,550.88l.73-.1,187.72-23.43-167.51,85.02-.21-.63-20.74-60.86Zm181.73-21.47L-2.14,551.89l20.01,58.78,160.11-81.26Z"/>
              <path class="cls-12" d="m41.61,183.27l1.17-.86,137.67-101.69.21.94,24.44,124.96-.78-.13-162.71-23.21Zm138.06-100.44L44.66,182.51l158.96,22.67-23.95-122.35Z"/>
              <path class="cls-12" d="m64.85,435.95l1.2-.29,146.74-36.69-.23.94-30.85,129.54-.76-.62-116.1-92.88Zm146.3-35.31l-143.61,35.9,113.44,90.78,30.17-126.68Z"/>
              <path class="cls-12" d="m16.05,611.61l1.22-.6,167.25-84.91-2.76,2.68-106.04,104.32-.37-.13-59.3-21.37Zm162.06-80.93l-159.04,80.74,56.33,20.3,102.71-101.04Z"/>
              <polygon class="cls-12" points="-12.77 688.68 17.87 612.28 74.41 632.63 14.15 688.68 15.92 688.68 75.95 632.87 76.68 632.17 17.74 610.96 17.2 610.77 -14.07 688.68 -12.77 688.68"/>
              <path class="cls-12" d="m-4.12,552.13l70.14-116.78.55.42,116.26,93.02-1.41.21-185.54,23.14Zm70.45-114.98L-1.8,550.61l181.68-22.67-113.55-90.8Z"/>
              <path class="cls-12" d="m64.93,437.17l.73-1.22,69.98-116.62.42.08,209.08,47.73-133.34,33.32v-.03l-146.87,36.74Zm71.34-116.49l-68.84,114.61,143.93-35.98v-.96l.83.78,127.77-31.94-203.7-46.51Z"/>
              <path class="cls-12" d="m41.9,182.1l1.3.18,162.16,23.13-.47.78-68.45,114.07-.89.47L41.9,182.1Zm161.49,24.26l-158.99-22.67,91.45,135.3,67.53-112.63Z"/>
              <polygon class="cls-12" points="43.64 182.54 43.38 182.17 -27.67 208.05 -27.67 209.32 42.91 183.63 134.1 318.52 -27.67 245.93 -27.67 247.18 135.51 320.5 137.44 321.33 43.64 182.54"/>
              <polygon class="cls-12" points="136.06 319.4 -27.67 245.9 -27.67 247.21 135.09 320.29 66.18 435.11 -27.67 294.37 -27.67 296.53 65.71 436.57 66.23 437.35 136.45 320.29 136.89 319.59 136.06 319.4"/>
              <path class="cls-12" d="m545.62,313.86l92.93,13.05.13.31,21.41,49.22-1.55-.86-112.92-61.72Zm92.09,14.15l-85.75-12.04,105.64,57.71-19.89-45.67Z"/>
              <path class="cls-12" d="m637.34,327.12l.61-.23,45.57-17.69.38,1.07-.09.21-24.93,66.18-.56-1.36-20.97-48.17Zm45.01-16.18l-43.42,16.83,19.91,45.67,23.52-62.51Z"/>
              <path class="cls-12" d="m310.28,479.35l1.02-.37,54.76-20.56.14.7,15.47,75.45-1.28-1.02-70.12-54.22Zm54.89-19.31l-52.46,19.7,67.13,51.9-14.67-71.6Z"/>
              <path class="cls-12" d="m272.43,616.3l38.22-137.05.99-.37.23.18,69.98,54.17-.85.45-108.58,82.62Zm39.19-135.93l-37.08,132.8,105.21-80.06-68.13-52.74Z"/>
            </g>
            <path class="cls-12" d="m15.01,37.36c0,3.34-2.71,6.02-6.05,6.02s-5.99-2.68-5.99-6.02,2.68-6.02,5.99-6.02,6.05,2.71,6.05,6.02Z"/>
            <path class="cls-12" d="m185.67,81.34c0,3.34-2.71,6.02-6.05,6.02s-6.02-2.68-6.02-6.02,2.68-6.02,6.02-6.02,6.05,2.71,6.05,6.02Z"/>
            <path class="cls-12" d="m48.7,182.17c0,3.33-2.68,6.02-6.02,6.02s-6.02-2.68-6.02-6.02,2.68-6.02,6.02-6.02,6.02,2.71,6.02,6.02Z"/>
            <path class="cls-12" d="m210.47,206.9c0,3.36-2.68,6.02-5.99,6.02s-6.04-2.66-6.04-6.02,2.71-6.02,6.04-6.02,5.99,2.71,5.99,6.02Z"/>
            <circle class="cls-12" cx="328.25" cy="194.86" r="6.02"/>
            <path class="cls-12" d="m355.62,153.07c0,3.36-2.7,6.02-6.02,6.02s-6.02-2.66-6.02-6.02,2.68-6.02,6.02-6.02,6.02,2.71,6.02,6.02Z"/>
            <path class="cls-12" d="m486.9,61.02c0,3.31-2.7,6.02-6.02,6.02s-6.03-2.71-6.03-6.02,2.7-6.02,6.03-6.02,6.02,2.68,6.02,6.02Z"/>
            <path class="cls-12" d="m484.81,124.93c0,3.33-2.7,6.02-6.02,6.02s-6.02-2.68-6.02-6.02,2.68-6.02,6.02-6.02,6.02,2.71,6.02,6.02Z"/>
            <circle class="cls-12" cx="461.44" cy="266.31" r="6.02"/>
            <path class="cls-12" d="m348.32,366.8c0,3.34-2.68,6.02-6.02,6.02s-6.02-2.68-6.02-6.02,2.69-6.02,6.02-6.02,6.02,2.68,6.02,6.02Z"/>
            <path class="cls-12" d="m509.5,505.88c0,3.34-2.68,6.02-6.02,6.02s-6.02-2.68-6.02-6.02,2.69-6.02,6.02-6.02,6.02,2.71,6.02,6.02Z"/>
            <path class="cls-12" d="m554.65,597.3c0,3.36-2.69,6.02-6.02,6.02s-6.02-2.66-6.02-6.02,2.68-6.02,6.02-6.02,6.02,2.71,6.02,6.02Z"/>
            <path class="cls-12" d="m478.51,650.12c0,3.36-2.69,6.02-6.02,6.02s-6.02-2.66-6.02-6.02,2.68-6.02,6.02-6.02,6.02,2.71,6.02,6.02Z"/>
            <circle class="cls-12" cx="66.88" cy="436.13" r="6.02"/>
            <path class="cls-12" d="m554.09,314.77c0,3.34-2.69,6.02-6.02,6.02s-6.03-2.68-6.03-6.02,2.69-6.02,6.03-6.02,6.02,2.71,6.02,6.02Z"/>
            <circle class="cls-12" cx="658.88" cy="375.66" r="6.02"/>
            <path class="cls-12" d="m186.37,528.75c0,3.36-2.68,6.04-6.02,6.04s-6.04-2.68-6.04-6.04,2.71-6.02,6.04-6.02,6.02,2.71,6.02,6.02Z"/>
            <path class="cls-12" d="m81.94,631.93c0,3.33-2.68,6.02-6.02,6.02s-6.02-2.68-6.02-6.02,2.68-6.02,6.02-6.02,6.02,2.71,6.02,6.02Z"/>
            <circle class="cls-12" cx="273.55" cy="615.33" r="6.02"/>
            <path class="cls-12" d="m400.77,598.22c0,3.33-2.7,6.02-6.03,6.02s-6.02-2.68-6.02-6.02,2.7-6.02,6.02-6.02,6.03,2.68,6.03,6.02Z"/>
            <path class="cls-12" d="m537.1,138.12c0,3.34-2.68,6.02-6.02,6.02s-6.02-2.68-6.02-6.02,2.7-6.05,6.02-6.05,6.02,2.71,6.02,6.05Z"/>
            <path class="cls-12" d="m593.86,87c0,3.34-2.7,6.02-6.02,6.02s-6.02-2.68-6.02-6.02,2.68-6.02,6.02-6.02,6.02,2.71,6.02,6.02Z"/>
            <path class="cls-12" d="m646.55,113.65c0,2.5-2.02,4.51-4.51,4.51s-4.52-2.01-4.52-4.51,2.02-4.51,4.52-4.51,4.51,2.01,4.51,4.51Z"/>
            <path class="cls-12" d="m591.62,153.91c0,2.5-2.03,4.51-4.52,4.51s-4.52-2.01-4.52-4.51,2.03-4.51,4.52-4.51,4.52,2.01,4.52,4.51Z"/>
            <path class="cls-12" d="m619.07,263.88c0,2.5-2.02,4.54-4.52,4.54s-4.51-2.03-4.51-4.54,2.02-4.51,4.51-4.51,4.52,2.03,4.52,4.51Z"/>
            <path class="cls-12" d="m642.92,327.53c0,2.48-2.02,4.51-4.51,4.51s-4.52-2.03-4.52-4.51,2.02-4.53,4.52-4.53,4.51,2.03,4.51,4.53Z"/>
            <path class="cls-12" d="m492.05,371.17c0,2.48-2.02,4.51-4.52,4.51s-4.51-2.03-4.51-4.51,2.02-4.53,4.51-4.53,4.52,2.03,4.52,4.53Z"/>
            <path class="cls-12" d="m439.37,321.13c0,2.5-2.02,4.51-4.51,4.51s-4.52-2.01-4.52-4.51,2.03-4.51,4.52-4.51,4.51,2.01,4.51,4.51Z"/>
            <path class="cls-12" d="m258.31,264.45c0,2.5-2.03,4.51-4.51,4.51s-4.51-2.01-4.51-4.51,2.01-4.51,4.51-4.51,4.51,2.01,4.51,4.51Z"/>
            <path class="cls-12" d="m140.9,320.13c0,2.5-2.01,4.51-4.48,4.51s-4.53-2.01-4.53-4.51,2.03-4.51,4.53-4.51,4.48,2.01,4.48,4.51Z"/>
            <path class="cls-12" d="m215.89,399.39c0,2.48-2.03,4.51-4.54,4.51s-4.48-2.03-4.48-4.51,2.01-4.53,4.48-4.53,4.54,2.03,4.54,4.53Z"/>
            <path class="cls-12" d="m326.88,441.86c0,2.48-2.02,4.51-4.52,4.51s-4.5-2.03-4.5-4.51,2.01-4.53,4.5-4.53,4.52,2.03,4.52,4.53Z"/>
            <path class="cls-12" d="m179.52,624.06c0,2.5-2.03,4.54-4.51,4.54s-4.51-2.03-4.51-4.54,2.01-4.51,4.51-4.51,4.51,2.03,4.51,4.51Z"/>
            <path class="cls-12" d="m21.6,611.92c0,2.5-2.01,4.51-4.51,4.51s-4.53-2.01-4.53-4.51,2.03-4.51,4.53-4.51,4.51,2.01,4.51,4.51Z"/>
            <path class="cls-12" d="m1.56,552.57c0,2.5-2.03,4.51-4.54,4.51s-4.53-2.01-4.53-4.51,2.03-4.51,4.53-4.51,4.54,2.01,4.54,4.51Z"/>
            <path class="cls-12" d="m370.44,459.27c0,2.5-2.02,4.53-4.52,4.53s-4.51-2.03-4.51-4.53,2.02-4.51,4.51-4.51,4.52,2.03,4.52,4.51Z"/>
            <path class="cls-12" d="m385.64,533.47c0,2.5-2.02,4.51-4.52,4.51s-4.51-2.01-4.51-4.51,2.02-4.51,4.51-4.51,4.52,2.01,4.52,4.51Z"/>
            <path class="cls-12" d="m316.41,479.54c0,2.47-2.03,4.51-4.53,4.51s-4.48-2.03-4.48-4.51,2-4.54,4.48-4.54,4.53,2.03,4.53,4.54Z"/>
            <path class="cls-12" d="m603.14,486.39c0,2.5-2.02,4.51-4.51,4.51s-4.52-2.01-4.52-4.51,2.02-4.51,4.52-4.51,4.51,2.01,4.51,4.51Z"/>
            <path class="cls-12" d="m555.86,6.12c0,3.34-2.69,6.02-6.02,6.02s-6.02-2.68-6.02-6.02,2.68-6.02,6.02-6.02,6.02,2.68,6.02,6.02Z"/>
            <path class="cls-12" d="m642.4,27.18c0,3.33-2.7,6.02-6.02,6.02s-6.03-2.68-6.03-6.02,2.7-6.02,6.03-6.02,6.02,2.71,6.02,6.02Z"/>
          </g>
        </g>
      </g>
    </g>
  </g>
</svg>